<svg width="40" height="39" viewBox="0 0 40 39" fill="none" xmlns="http://www.w3.org/2000/svg">
<path fill-rule="evenodd" clip-rule="evenodd" d="M18.0464 13.3471C14.6344 8.57304 9.41061 7.66403 5.40747 9.09088C1.5992 10.4483 -1.39286 14.193 0.67646 18.2632C1.55135 19.9841 3.38925 22.1174 5.51015 24.2594C7.67014 26.4408 10.2606 28.7654 12.7856 30.8898C15.3116 33.015 17.7949 34.959 19.7496 36.3794C20.7238 37.0872 21.5876 37.6803 22.2707 38.104C22.6089 38.3137 22.9338 38.5014 23.2233 38.6433C23.367 38.7137 23.5336 38.7886 23.7098 38.8498C23.8476 38.8977 24.162 39 24.5493 39C24.9546 39 25.4483 38.9155 25.8759 38.8261C26.3524 38.7265 26.9177 38.5833 27.5292 38.4014C28.7467 38.0391 30.2173 37.5022 31.5904 36.7999C32.9362 36.1116 34.3377 35.1895 35.2522 34.0044C36.2239 32.7454 36.6536 31.1544 35.8544 29.4381C35.2503 28.1406 34.3364 27.0536 32.9154 26.7137C31.5122 26.378 30.305 26.9399 29.5808 27.4013C29.2008 27.6435 28.8521 27.9221 28.547 28.1938C28.319 27.9694 28.0557 27.7464 27.7565 27.5519C26.911 27.0021 25.6875 26.6352 24.296 27.1168C23.0726 27.5404 22.0347 28.523 21.0878 29.8792C20.5604 30.6346 20.8205 31.6277 21.6688 32.0973C22.5171 32.5669 23.6323 32.3353 24.1597 31.58C24.9175 30.4946 25.4188 30.1959 25.5822 30.1283C25.5936 30.1346 25.6074 30.1427 25.6235 30.1532C25.8205 30.2813 26.0546 30.5359 26.3185 30.8996C26.379 30.9831 26.4357 31.0644 26.4937 31.1478C26.547 31.2246 26.6117 31.3182 26.6706 31.3993C26.7216 31.4695 26.8151 31.5962 26.9302 31.717C26.9859 31.7753 27.0986 31.8881 27.2619 31.9985C27.3882 32.0838 27.7916 32.3401 28.3917 32.3401C28.9567 32.3401 29.3463 32.1072 29.425 32.0612C29.566 31.9788 29.6715 31.8941 29.7273 31.8475C29.8437 31.7504 29.9496 31.6437 30.0199 31.5715C30.131 31.4574 30.3907 31.1776 30.5237 31.0386C30.9049 30.6406 31.3037 30.2641 31.6856 30.0208C31.8276 29.9304 31.9268 29.8834 31.9893 29.8593C32.0882 29.9491 32.2794 30.1699 32.513 30.6718C32.7576 31.1971 32.6851 31.6437 32.271 32.1802C31.7999 32.7907 30.9325 33.422 29.7888 34.0069C28.6725 34.5779 27.433 35.034 26.3829 35.3465C25.8605 35.5019 25.4026 35.6165 25.0493 35.6904C24.9545 35.7102 24.8741 35.7255 24.8072 35.7375C24.686 35.671 24.5303 35.5801 24.3382 35.461C23.7621 35.1037 22.9778 34.5678 22.0365 33.8838C20.1603 32.5205 17.7429 30.6293 15.2698 28.5486C12.7956 26.467 10.2883 24.2147 8.22339 22.1293C6.1194 20.0043 4.60507 18.1806 3.97173 16.9348C3.02463 15.0719 4.18205 12.9971 6.7517 12.0811C9.12652 11.2347 12.5092 11.5986 14.9948 15.0764C17.236 18.2122 18.9742 20.4054 20.8202 21.8553C19.753 22.1327 18.6856 22.029 17.755 21.6714C16.0424 21.0133 14.7576 19.4855 14.7576 17.599C14.7576 16.7096 13.9479 15.9885 12.949 15.9885C11.9502 15.9885 11.1404 16.7096 11.1404 17.599C11.1404 20.8572 13.3748 23.4963 16.3218 24.6287C18.8732 25.6091 21.935 25.4551 24.5243 23.7472C26.633 24.3364 29.0067 24.3542 31.9478 24.3542C34.2986 24.3542 36.224 23.7626 37.6269 22.7187C39.0262 21.6774 39.7892 20.2699 39.9624 18.8438C40.3039 16.0338 38.307 12.9735 34.3703 12.6099C32.7765 12.4627 31.4163 12.5849 30.2259 13.0643C29.0312 13.5453 28.2074 14.3066 27.5415 15.099C26.9254 15.8321 26.2857 16.8025 25.6799 17.6325C25.161 18.3435 24.5713 19.0952 23.8231 19.8774C22.3135 18.9104 20.7214 17.0898 18.0464 13.3471ZM31.7162 15.9991C32.1414 15.8279 32.8072 15.7038 33.9971 15.8137C35.628 15.9643 36.5275 17.1699 36.3663 18.4973C36.2882 19.14 35.9499 19.769 35.3074 20.2471C34.6684 20.7226 33.6112 21.1333 31.9478 21.1333C30.024 21.1333 28.593 21.1096 27.4495 20.9986C27.9324 20.4315 28.3456 19.8909 28.7129 19.3877C29.4713 18.3485 29.9113 17.655 30.4375 17.0288C30.9139 16.4619 31.2954 16.1686 31.7162 15.9991Z" fill="#8C8C8C"/>
<path d="M13.1892 0C10.5867 0 8.47696 1.87859 8.47696 4.19595C8.47696 6.51332 10.5867 8.39191 13.1892 8.39191C15.7916 8.3919 17.9013 6.51331 17.9013 4.19595C17.9013 1.8786 15.7916 9.33363e-06 13.1892 0Z" fill="#8C8C8C"/>
</svg>
